<?xml version="1.0" encoding="utf-8"?>
<!-- Generator: Adobe Illustrator 25.4.1, SVG Export Plug-In . SVG Version: 6.00 Build 0)  -->
<svg version="1.1" id="Layer_1" xmlns="http://www.w3.org/2000/svg" xmlns:xlink="http://www.w3.org/1999/xlink" x="0px" y="0px"
	 viewBox="0 0 32 32" style="enable-background:new 0 0 32 32;" xml:space="preserve">
<style type="text/css">
	.st0{display:none;}
	.st1{display:none;fill:none;stroke:#000000;stroke-miterlimit:10;}
	.st2{fill:none;stroke:#000000;stroke-width:0.5653;stroke-linecap:round;stroke-miterlimit:10;}
	.st3{fill:none;stroke:#000000;stroke-width:0.9422;stroke-linecap:round;stroke-miterlimit:10;}
	.st4{fill:#E65419;}
	.st5{fill:#E6D119;}
</style>
<g class="st0">
	
		<image style="display:inline;overflow:visible;" width="625" height="928" xlink:href="66AB3473.jpg"  transform="matrix(0.1296 0 0 -0.1297 -26 98.3688)">
	</image>
</g>
<path class="st1" d="M6.6,30.6C4.9,30.8,5,31,5,33c0,2.4-0.7,8.6-0.6,11.7c0,1,0.8,1.9,1.9,2c2.1,0.2,6.3,0.4,7.7,0.3
	c0.9-0.1,2,0,2-3c0-2.9,0.1-8.8,0.4-11.5c0.1-0.9-1-1.5-1.9-1.6C12.3,30.7,8.5,30.5,6.6,30.6z"/>
<g>
	<path class="st2" d="M9.7,29.4c-0.2-0.3-0.2-1,0-1.3c0,0,0-0.1,0-0.1V17.8c0-0.1-0.1-0.2-0.2-0.2c-0.1,0-0.2,0-0.2,0
		c-0.4,0-0.4-0.8-0.2-0.9c0.1-0.1,2.8-2.4,2.8-2.4c0.2-0.2,0.2-0.2,0-0.4s0.4-0.8,0.4-0.8c0.4-0.4,3.2-4,3.4-4.1
		c0.2-0.2,0.4-0.2,0.6,0c0.3,0.3,1.6,1.8,1.7,1.9c0.8,0.5,4.9,2.6,5.3,3c0,0,0.6,0.4,0,0.6c-0.4,0.1-0.3,0.5-0.4,1.3
		c-0.2,1.4,0,0.9-0.2,2.1c-0.2,0.6-0.5,0.3-0.6,0.6c-0.2,1.5,0,2.9,0,6.4c0,0.1-0.2,3,0,3.2c0.4,0.4,0.4,0.9,0.2,1.5"/>
	<path class="st2" d="M9.5,17.6c0.9,0,2.8,0.2,3.8,0.2c0.2,0,0.2-0.3,0.2-0.4c0-2.1-0.4-3.2,0.2-4c1-1.3,0.9-1.7,1.7-2.6
		c0.8-0.9,0.3-1,0.9-0.2c0.6,0.7,1.6,2.1,2.1,2.7c0.1,0.2,0,0.4-0.1,0.6c-0.1,0.7-0.1,1.2-0.1,2.5c0,0.8-0.2,1.5,0,1.5
		c0.9,0,3.8,0.2,4.1,0.2"/>
	<path class="st2" d="M17.8,10.6c0.7,1.1,2.4,2.8,2.1,3.2c-0.5,0.5,1.9,2.8,2.8,4"/>
	<circle class="st3" cx="16" cy="19.2" r="12.1"/>
	<path class="st2" d="M16.1,5c0.4,0.9-0.2,1.3,0,2.1"/>
	<g>
		<path class="st4" d="M16.6,1.2c-0.4-1.9-0.4-0.6-0.9,0.1c-0.5,0.7-1,1.6-1.1,2.3c-0.2,0.9,0.1,1.2,0.3,1.4c0.3,0.3,1.5,1,2.3,0.1
			c0.4-0.4,0.8-0.8,0.7-1.5C17.6,2.7,16.8,2.2,16.6,1.2z"/>
		<path class="st5" d="M16.3,2.7c-0.1-0.4-0.1-0.4-0.2,0c-0.1,0.3-0.5,0.8-0.7,1.2c-0.3,0.5-0.1,1,0.5,1.2c0.2,0.1,0.5,0.1,0.7,0
			c0.6-0.2,0.6-0.9,0.5-1.2C16.7,3.4,16.3,3,16.3,2.7z"/>
	</g>
</g>
</svg>
