<svg xmlns="http://www.w3.org/2000/svg" width="306" height="142" viewBox="0 0 306 142">
  <g>
    <path d="M135.8,76.52a2.32,2.32,0,0,1-1.52-.5,1.71,1.71,0,0,1-.6-1.37V40.9A1.81,1.81,0,0,1,135.56,39h11.66a11.09,11.09,0,0,1,5.21,1.22,9.69,9.69,0,0,1,3.69,3.34,8.75,8.75,0,0,1,1.37,4.9,7.94,7.94,0,0,1-1.39,4.61,9,9,0,0,1-3.65,3.07,9.8,9.8,0,0,1,5.19,3.24,9.12,9.12,0,0,1,2,6,11,11,0,0,1-1.48,5.76A10.45,10.45,0,0,1,154,75.1a12.25,12.25,0,0,1-6,1.42Zm1.63-21.84h9.79A7,7,0,0,0,152,53.05a5.73,5.73,0,0,0,1.87-4.56A5.24,5.24,0,0,0,152,44.12a7.41,7.41,0,0,0-4.75-1.49h-9.79Zm0,18.24H148a8.82,8.82,0,0,0,4.08-.91,6.81,6.81,0,0,0,2.78-2.59,7.63,7.63,0,0,0,1-4,7,7,0,0,0-1-3.77,6.78,6.78,0,0,0-2.78-2.49,9.07,9.07,0,0,0-4.08-.89H137.43Z"/>
    <path d="M178.47,76.76a13.77,13.77,0,0,1-6.89-1.7,12.28,12.28,0,0,1-4.7-4.73,13.8,13.8,0,0,1-1.71-6.91,14.48,14.48,0,0,1,1.61-6.94,12.11,12.11,0,0,1,4.44-4.73A12.3,12.3,0,0,1,177.75,50a12,12,0,0,1,6.36,1.66,11.14,11.14,0,0,1,4.2,4.58,14.59,14.59,0,0,1,1.49,6.68,1.6,1.6,0,0,1-.48,1.22,1.77,1.77,0,0,1-1.25.46h-20.4V61.54h20.78L186.39,63a11.06,11.06,0,0,0-1-5,8.23,8.23,0,0,0-3-3.46,8.41,8.41,0,0,0-4.63-1.25,8.84,8.84,0,0,0-4.8,1.3,8.66,8.66,0,0,0-3.19,3.58,11.47,11.47,0,0,0-1.13,5.21,10.33,10.33,0,0,0,1.27,5.18,9.41,9.41,0,0,0,3.48,3.55,9.81,9.81,0,0,0,5.09,1.3,10.71,10.71,0,0,0,3.48-.6,8.46,8.46,0,0,0,2.81-1.52,2,2,0,0,1,1.2-.45,1.65,1.65,0,0,1,1.15.36,1.81,1.81,0,0,1,.65,1.25,1.39,1.39,0,0,1-.56,1.15,12.87,12.87,0,0,1-4,2.23A13.82,13.82,0,0,1,178.47,76.76Z"/>
    <path d="M197.86,76.52a1.79,1.79,0,0,1-1.34-.48,1.83,1.83,0,0,1-.48-1.35V52.09a1.83,1.83,0,0,1,.48-1.35,2.11,2.11,0,0,1,2.68,0,1.83,1.83,0,0,1,.48,1.35v22.6A1.83,1.83,0,0,1,199.2,76,1.8,1.8,0,0,1,197.86,76.52Zm-.29-16.18A11.25,11.25,0,0,1,199.13,55a10.57,10.57,0,0,1,3.7-3.7A9.75,9.75,0,0,1,207.89,50a7.49,7.49,0,0,1,3.41.62,1.5,1.5,0,0,1,.91,1.82,1.41,1.41,0,0,1-.65,1,2,2,0,0,1-1.1.2c-.43,0-.92-.07-1.46-.1a10.65,10.65,0,0,0-4.78.55,7.22,7.22,0,0,0-3.31,2.43,6.24,6.24,0,0,0-1.23,3.88Z"/>
    <path d="M227.67,76.76a13.16,13.16,0,0,1-6.72-1.7,12.21,12.21,0,0,1-4.59-4.73,14.2,14.2,0,0,1-1.65-6.91,13.67,13.67,0,0,1,1.73-7,12.27,12.27,0,0,1,4.75-4.73,14.68,14.68,0,0,1,13.75,0,12.14,12.14,0,0,1,4.7,4.73,14.31,14.31,0,0,1,1.76,7l-2.16,1.15a13.1,13.1,0,0,1-1.49,6.31,11,11,0,0,1-4.11,4.32A11.41,11.41,0,0,1,227.67,76.76Zm.48,10.13a15,15,0,0,1-6.67-1.42,13.25,13.25,0,0,1-4.76-3.86,1.55,1.55,0,0,1-.45-1.25,1.53,1.53,0,0,1,.69-1.11,1.81,1.81,0,0,1,1.4-.28,1.83,1.83,0,0,1,1.2.72,10.06,10.06,0,0,0,3.57,2.78,11.6,11.6,0,0,0,5.07,1.06,9.16,9.16,0,0,0,4.84-1.3,9.32,9.32,0,0,0,3.44-3.65,11.53,11.53,0,0,0,1.27-5.52V65.77L239.14,63l2.26.44v9.79a14.08,14.08,0,0,1-1.73,7,13,13,0,0,1-4.71,4.9A12.88,12.88,0,0,1,228.15,86.89Zm-.1-13.49a9.78,9.78,0,0,0,5-1.27,9.16,9.16,0,0,0,3.43-3.53,10.53,10.53,0,0,0,1.25-5.18,10.68,10.68,0,0,0-1.25-5.21,9,9,0,0,0-3.43-3.55,9.79,9.79,0,0,0-5-1.28,9.89,9.89,0,0,0-5,1.28,8.93,8.93,0,0,0-3.45,3.55,10.57,10.57,0,0,0-1.25,5.21,10.43,10.43,0,0,0,1.25,5.18A9.08,9.08,0,0,0,223,72.13,9.88,9.88,0,0,0,228.05,73.4Z"/>
    <path d="M260.5,76.76a13.77,13.77,0,0,1-6.89-1.7,12.28,12.28,0,0,1-4.7-4.73,13.8,13.8,0,0,1-1.71-6.91,14.48,14.48,0,0,1,1.61-6.94,12.11,12.11,0,0,1,4.44-4.73A12.3,12.3,0,0,1,259.78,50a12,12,0,0,1,6.36,1.66,11.14,11.14,0,0,1,4.2,4.58,14.59,14.59,0,0,1,1.49,6.68,1.6,1.6,0,0,1-.48,1.22,1.77,1.77,0,0,1-1.25.46H249.7V61.54h20.78L268.42,63a10.93,10.93,0,0,0-1-5,8.23,8.23,0,0,0-3-3.46,8.39,8.39,0,0,0-4.63-1.25,8.87,8.87,0,0,0-4.8,1.3,8.66,8.66,0,0,0-3.19,3.58,11.6,11.6,0,0,0-1.13,5.21,10.33,10.33,0,0,0,1.27,5.18,9.41,9.41,0,0,0,3.48,3.55,9.81,9.81,0,0,0,5.09,1.3,10.71,10.71,0,0,0,3.48-.6,8.46,8.46,0,0,0,2.81-1.52,2,2,0,0,1,1.2-.45,1.64,1.64,0,0,1,1.15.36,1.81,1.81,0,0,1,.65,1.25,1.4,1.4,0,0,1-.55,1.15,13,13,0,0,1-4,2.23A13.82,13.82,0,0,1,260.5,76.76Z"/>
    <path d="M279.94,76.52a1.88,1.88,0,0,1-1.37-.5,1.83,1.83,0,0,1-.5-1.33V52.14a1.74,1.74,0,0,1,1.87-1.88,1.79,1.79,0,0,1,1.32.51,1.86,1.86,0,0,1,.5,1.37V74.69a1.72,1.72,0,0,1-1.82,1.83Zm20.64,0a1.81,1.81,0,0,1-1.34-.53,1.73,1.73,0,0,1-.53-1.3V62.21a9.56,9.56,0,0,0-1.13-4.89,7.22,7.22,0,0,0-3.07-2.88,9.8,9.8,0,0,0-4.39-1,9.64,9.64,0,0,0-4.25.91,7.48,7.48,0,0,0-3,2.5,6.09,6.09,0,0,0-1.11,3.6h-2.64a10.42,10.42,0,0,1,1.63-5.4,11,11,0,0,1,4.08-3.75A11.82,11.82,0,0,1,290.5,50a12.9,12.9,0,0,1,6.09,1.41,10.41,10.41,0,0,1,4.25,4.15,13.3,13.3,0,0,1,1.56,6.67V74.69a1.76,1.76,0,0,1-.52,1.3A1.8,1.8,0,0,1,300.58,76.52Z"/>
    <path d="M150.53,133a17.91,17.91,0,0,1-7.27-1.49,18.56,18.56,0,0,1-5.95-4.15,19.52,19.52,0,0,1-4-6.15,20.07,20.07,0,0,1,0-14.88,18.86,18.86,0,0,1,4-6.12,19.32,19.32,0,0,1,6-4.15,17.73,17.73,0,0,1,7.32-1.51,18.69,18.69,0,0,1,6.29,1,17.86,17.86,0,0,1,5.47,3.21,1.27,1.27,0,0,1,.51.8,1.58,1.58,0,0,1-.12.86,1.25,1.25,0,0,1-.58.6.84.84,0,0,1-.48.58,1.62,1.62,0,0,1-.89.14,1.81,1.81,0,0,1-1-.43,12.77,12.77,0,0,0-4.08-2.43,15.42,15.42,0,0,0-5.14-.79,13.81,13.81,0,0,0-5.83,1.25,15.54,15.54,0,0,0-4.78,3.41,16.27,16.27,0,0,0-3.24,5,15.57,15.57,0,0,0-1.17,6,15.82,15.82,0,0,0,1.17,6.1,16.27,16.27,0,0,0,3.24,5,15.12,15.12,0,0,0,4.78,3.38,14,14,0,0,0,5.83,1.23,14.23,14.23,0,0,0,5-.87,16.77,16.77,0,0,0,4.47-2.49,1.52,1.52,0,0,1,1.22-.39,2,2,0,0,1,1.13.58,1.68,1.68,0,0,1,.48,1.25,1.92,1.92,0,0,1-.12.69,2.25,2.25,0,0,1-.41.65,14,14,0,0,1-5.47,3.19A21,21,0,0,1,150.53,133Z"/>
    <path d="M179.72,132.76a12.59,12.59,0,0,1-11.26-6.53,13.61,13.61,0,0,1-1.7-6.81,13.43,13.43,0,0,1,1.75-6.87,13,13,0,0,1,4.77-4.78A13.44,13.44,0,0,1,180.1,106a13.28,13.28,0,0,1,6.79,1.75,13,13,0,0,1,4.75,4.78,13.76,13.76,0,0,1,1.8,6.87L192,120.57a12.13,12.13,0,0,1-1.61,6.21,11.9,11.9,0,0,1-4.37,4.37A12.23,12.23,0,0,1,179.72,132.76Zm.38-3.36a9.5,9.5,0,0,0,5-1.3,9.32,9.32,0,0,0,3.45-3.57,10.9,10.9,0,0,0,0-10.25,9.57,9.57,0,0,0-3.45-3.58,10,10,0,0,0-9.91,0,9.72,9.72,0,0,0-3.51,3.58,10.83,10.83,0,0,0,0,10.25,9.54,9.54,0,0,0,8.45,4.87Zm11.47,3.12a1.85,1.85,0,0,1-1.34-.51,1.73,1.73,0,0,1-.53-1.32v-8.2l.91-3.8,2.83.73v11.27a1.73,1.73,0,0,1-.52,1.32A1.87,1.87,0,0,1,191.57,132.52Z"/>
    <path d="M202.52,132.52a1.83,1.83,0,0,1-1.37-.51,1.76,1.76,0,0,1-.51-1.32V108.13a1.76,1.76,0,0,1,1.88-1.87,1.75,1.75,0,0,1,1.31.51,1.82,1.82,0,0,1,.51,1.36v22.56a1.75,1.75,0,0,1-1.82,1.83Zm20.64,0a1.83,1.83,0,0,1-1.35-.53,1.76,1.76,0,0,1-.53-1.3V118.21a9.57,9.57,0,0,0-1.12-4.89,7.24,7.24,0,0,0-3.08-2.88,9.77,9.77,0,0,0-4.39-1,9.67,9.67,0,0,0-4.25.91,7.61,7.61,0,0,0-3,2.5,6.16,6.16,0,0,0-1.1,3.6H201.7a10.33,10.33,0,0,1,1.63-5.4,10.91,10.91,0,0,1,4.08-3.75,11.83,11.83,0,0,1,5.67-1.37,12.9,12.9,0,0,1,6.09,1.42,10.41,10.41,0,0,1,4.25,4.15,13.3,13.3,0,0,1,1.56,6.67v12.48a1.81,1.81,0,0,1-1.82,1.83Z"/>
    <path d="M245.09,132.76a13.44,13.44,0,0,1-6.82-1.75,12.94,12.94,0,0,1-4.77-4.78,13.41,13.41,0,0,1-1.75-6.86,13.62,13.62,0,0,1,1.7-6.82,12.88,12.88,0,0,1,4.63-4.78,12.72,12.72,0,0,1,6.63-1.75,12.23,12.23,0,0,1,5.8,1.37,11.68,11.68,0,0,1,4.18,3.62V96.9a1.79,1.79,0,0,1,.53-1.36,1.85,1.85,0,0,1,1.34-.51,1.87,1.87,0,0,1,1.35.51,1.79,1.79,0,0,1,.52,1.36v22.66a13.89,13.89,0,0,1-1.84,6.74,12.86,12.86,0,0,1-4.76,4.73A13.26,13.26,0,0,1,245.09,132.76Zm0-3.36a9.42,9.42,0,0,0,5-1.32,9.57,9.57,0,0,0,3.45-3.58,10.9,10.9,0,0,0,0-10.25,9.39,9.39,0,0,0-3.45-3.57,9.74,9.74,0,0,0-13.42,3.57,10.83,10.83,0,0,0,0,10.25,9.72,9.72,0,0,0,3.51,3.58A9.44,9.44,0,0,0,245.09,129.4Z"/>
    <path d="M272.74,132.52a5.79,5.79,0,0,1-3.43-1.06,6.91,6.91,0,0,1-2.36-2.93,10.41,10.41,0,0,1-.84-4.32V96.85A1.75,1.75,0,0,1,267.94,95a1.73,1.73,0,0,1,1.82,1.82v27.36a6.06,6.06,0,0,0,.84,3.36,2.47,2.47,0,0,0,2.14,1.3h1.2a1.43,1.43,0,0,1,1.15.51,1.92,1.92,0,0,1,.43,1.31,1.62,1.62,0,0,1-.6,1.32,2.33,2.33,0,0,1-1.56.51Z"/>
    <path d="M291.07,132.76a13.64,13.64,0,0,1-6.88-1.71,12.28,12.28,0,0,1-4.71-4.72,13.9,13.9,0,0,1-1.7-6.91,14.37,14.37,0,0,1,1.61-6.94,12.11,12.11,0,0,1,4.44-4.73,12.26,12.26,0,0,1,6.52-1.73,12,12,0,0,1,6.36,1.66,11.14,11.14,0,0,1,4.2,4.58,14.43,14.43,0,0,1,1.49,6.67,1.62,1.62,0,0,1-.48,1.23,1.74,1.74,0,0,1-1.25.45h-20.4v-3.07h20.79L299,119a10.9,10.9,0,0,0-1-5,8,8,0,0,0-7.64-4.71,8.89,8.89,0,0,0-4.8,1.3,8.73,8.73,0,0,0-3.19,3.58,11.6,11.6,0,0,0-1.13,5.21,10.36,10.36,0,0,0,1.28,5.18,9.27,9.27,0,0,0,3.48,3.55,9.87,9.87,0,0,0,5.08,1.3,10.66,10.66,0,0,0,3.48-.6,8.36,8.36,0,0,0,2.81-1.52,2,2,0,0,1,1.2-.45,1.64,1.64,0,0,1,1.15.36,1.77,1.77,0,0,1,.65,1.25,1.39,1.39,0,0,1-.55,1.15,13,13,0,0,1-4,2.23A13.83,13.83,0,0,1,291.07,132.76Z"/>
  </g>
  <g>
    <g>
      <path d="M29.06,129.79c-.82-1.24-.82-4.55-.1-5.53a.5.5,0,0,0,.1-.26V78.94a.81.81,0,0,0-.83-.82h-.82c-1.65,0-1.65-3.3-.83-4.13.64-.64,12.32-10.66,12.4-10.75.83-.83.83-.83,0-1.65s1.66-3.31,1.66-3.31c1.65-1.65,14.13-17.44,14.88-18.19a1.56,1.56,0,0,1,2.48,0c1.45,1.46,7,8,7.44,8.27,3.36,2.33,21.49,11.57,23.14,13.23,0,0,2.49,1.65,0,2.48-1.75.58-1.14,2-1.65,5.79-.83,6.2,0,4.13-.83,9.09-.82,2.48-2.32,1.22-2.48,2.48-.82,6.61,0,12.81,0,28.11,0,.22-.91,13.14,0,14,1.66,1.65,1.66,4.13.83,6.61" fill="none" stroke="#000" stroke-linecap="round" stroke-miterlimit="10" stroke-width="2.18"/>
      <path d="M28.24,78.12c4.13,0,12.38.83,16.53.83.83,0,.83-1.23.83-1.65,0-9.1-1.66-14.06.82-17.37,4.44-5.91,4.14-7.44,7.44-11.57s1.36-4.3,4.14-.83c2.55,3.2,7.09,9.36,9,12,.57.78-.06,1.75-.27,2.69-.65,2.86-.48,5.28-.48,10.95,0,3.31-1.08,6.62,0,6.62,4.14,0,16.54.82,18.19.82" fill="none" stroke="#000" stroke-linecap="round" stroke-miterlimit="10" stroke-width="2.18"/>
      <path d="M64.61,47.53c2.91,4.86,10.75,12.4,9.09,14.06C71.6,63.7,82.19,73.91,86.1,79" fill="none" stroke="#000" stroke-linecap="round" stroke-miterlimit="10" stroke-width="2.18"/>
      <circle cx="56.76" cy="85.15" r="53" fill="none" stroke="#000" stroke-linecap="round" stroke-miterlimit="10" stroke-width="4"/>
      <path d="M57.17,22.73c1.65,4.14-.83,5.79,0,9.1" fill="none" stroke="#000" stroke-linecap="round" stroke-miterlimit="10" stroke-width="2.18"/>
    </g>
    <g>
      <path d="M59.19,6.46c-1.81-8.53-1.81-2.59-4,.57-2,2.85-4.29,6.93-4.88,9.89-.79,4,.51,5.26,1.19,5.94,1.18,1.18,6.39,4.28,10.09.59,1.78-1.78,3.36-3.72,3-6.53C63.91,12.77,60.1,10.77,59.19,6.46Z" fill="#e65419"/>
      <path d="M57.87,12.71c-.49-1.72-.49-1.72-1,0-.38,1.37-2.23,3.71-3.08,5.4-1.19,2.37-.44,4.17,2,5.23a3.93,3.93,0,0,0,3.12,0,4,4,0,0,0,2-5.23C59.76,15.74,58.25,14.08,57.87,12.71Z" fill="#e6d119"/>
    </g>
  </g>
</svg>
